<?xml version="1.0" encoding="UTF-8"?>
<svg version="1.1" viewBox="0 0 1600 1600" xmlns="http://www.w3.org/2000/svg">
<path transform="translate(700,1067)" d="m0 0h216v16c1.29-0.00524 2.58-0.0105 3.9-0.0159 32-0.118 64.1 0.219 96.1 1.02v16h67v17h50v16l6.44-0.0625c14.5-0.0626 29 0.583 43.6 1.06v16h34v17h49l1 16 33 1v16h17v17h33v17h17v16h16v17h17v33h17v17h16v33h17v167h-16l0.0625 6.94c0.0375 8.72-0.482 17.4-1.06 26.1h-17v16h-16v17l-16 1-1 16h-1183v-17h-16v-33h-17v-33h-17v-34h-16v-83h16v-50h17v-33h16l-0.0625-7.5c-0.0343-8.54 0.448-17 1.06-25.5h16v-17l16-1 1-16h16c-0.0396-5.22-0.0396-5.22-0.0901-10.4-0.00715-1.85 0.0398-3.71 0.0901-5.56 1-1 1-1 4.6-1.1 1.49 0.00574 2.98 0.0188 4.46 0.0352l7.94 0.0625v-16c11-0.736 21.9-1.1 33-1v-16h17v-16c11.4-0.765 22.6-1.1 34-1v-16c4.41-0.145 8.81-0.288 13.2-0.427 1.49-0.0476 2.98-0.0961 4.47-0.146 10.4-0.345 20.9-0.475 31.3-0.427v-16h34v-16c34.7-1.15 34.7-1.15 50-1v-16h50v-17h83v-16c33.3-0.806 66.7-1.14 100-1v-16z"/>
<path transform="translate(734)" d="m0 0h116v16l6.94-0.0625c8.72-0.0375 17.4 0.482 26.1 1.06v16l7.44-0.0625c8.89-0.0359 17.7 0.466 26.6 1.06v16h49l1 16 33 1v16c2.07-0.0116 4.14-0.0232 6.28-0.0352 20.3-0.0862 40.5 0.3 60.7 1.04v16h33v16l6.88-0.0312c9.05-0.015 18.1 0.241 27.1 0.531 1.57 0.0484 3.13 0.0966 4.7 0.145 3.77 0.116 7.54 0.236 11.3 0.355v16c3.28-0.0174 3.28-0.0174 6.62-0.0352 14.5-0.0596 28.9-0.0885 43.4 1.04v16h34v16l6.91-0.0312c8.87-0.0147 17.7 0.237 26.6 0.531 1.52 0.0484 3.03 0.0966 4.55 0.145 3.65 0.115 7.3 0.236 10.9 0.355v16l7.44-0.0625c8.89-0.0359 17.7 0.466 26.6 1.06v16h16l1 16 16 1v33h-17v17h-17v16c-4.41 0.145-8.81 0.288-13.2 0.427-1.49 0.0476-2.98 0.0961-4.47 0.146-10.4 0.345-20.9 0.475-31.3 0.427v16h-84v16l-16 1-1 16h-16v151h-16l0.0312 6.91c0.0147 8.87-0.238 17.7-0.531 26.6l-0.5 15.5c-21.8 0.33-43.6 0.66-66 1v16h-51v16c-27.7 1.11-55.3 1.11-83 1v16h-283v-16c-1.89 0.0116-3.77 0.0232-5.71 0.0352-25.8 0.103-51.5-0.438-77.3-1.04v-16h-50v-16l-6.44 0.0625c-14.5 0.0626-29-0.583-43.6-1.06v-16h-17v-17h-16c-2.05-56.7-2.05-56.7 0-83h16v-17h67v16l66 1v16l7.44-0.0625c8.89-0.0359 17.7 0.466 26.6 1.06v16h49l1 16h49l1-16h17c-0.0722-2.18-0.144-4.37-0.219-6.62-0.469-14.5-0.922-28.9-0.781-43.4h-33v-17h-34v-16c-2 0.0116-4 0.0232-6.06 0.0352-20 0.0881-40-0.313-59.9-1.04v-16h-34v-16l-66-1v-16l-6.44 0.0625c-14.5 0.0626-29-0.583-43.6-1.06v-16h-50v-17h-50v-16l-6.44 0.0625c-14.5 0.0626-29-0.583-43.6-1.06v-16h-50v-17h-17c-0.0997-11.1 0.264-22 1-33h33v-16c16.3-1.26 32.6-1.09 49-1v-16h34v-17h50v-16c34.7-1.15 34.7-1.15 50-1v-16h50v-17h50v-16c16.7-1.29 33.3-1.09 50-1v-16c4.55-0.145 9.1-0.288 13.6-0.427 1.54-0.0476 3.08-0.0961 4.62-0.146 10.6-0.339 21.1-0.475 31.7-0.427v-16h33v-16c11.4-0.765 22.6-1.1 34-1v-16h17v-17z"/>
<path transform="translate(434,617)" d="m0 0h83v16c2.7-0.0174 2.7-0.0174 5.46-0.0352 25.9-0.108 51.7 0.452 77.5 1.04v16h116v16h134v-16h117v-16c27.7-0.642 55.3-1.17 83-1v-16h100v83h-16l-1 83h-16l0.0625 7.5c0.0343 8.54-0.448 17-1.06 25.5h-16v18h-16l0.0625 7c0.0359 8.37-0.466 16.6-1.06 25l-16 1-1 16h-16v17h-17v16l-16 1-1 16-32 1-1 16h-33v16c-34.7 1.15-34.7 1.15-50 1v16h-217v-16c-2.2 0.0116-4.39 0.0232-6.66 0.0352-2.19 0.00786-4.38 0.0139-6.56 0.0198-1.49 0.00495-2.98 0.0117-4.47 0.0205-10.5 0.0602-20.8-0.324-31.3-1.08v-16h-18v-16l-6.94 0.0625c-8.72 0.0375-17.4-0.482-26.1-1.06v-16h-16v-17h-17v-17h-17v-17h-16v-16h-17v-33h-16c-0.736-11-1.1-21.9-1-33h-16c-0.145-4.55-0.288-9.1-0.427-13.6-0.0476-1.54-0.0961-3.08-0.146-4.62-0.339-10.6-0.475-21.1-0.427-31.7h-16v-50h-16v-67z"/>
<path transform="translate(1250,350)" d="m0 0h50v17h16v183h-50v16h-32v-16h-34v-166l16-1 1-16h33v-17z"/>
<path transform="translate(1217,600)" d="m0 0h99c1.16 39.3 1.16 39.3 0.961 58-0.0135 1.35-0.0269 2.71-0.0403 4.06-0.0104 1.02-0.0104 1.02-0.0211 2.06-0.0354 3.61-0.0633 7.22-0.0921 10.8-0.0551 6.77-0.117 13.5-0.181 20.3-0.0729 7.73-0.138 15.5-0.203 23.2-0.133 15.9-0.275 31.7-0.424 47.6h-16v17h-67v-16c-5.22 0.0396-5.22 0.0396-10.4 0.0901-1.85 0.00715-3.71-0.0398-5.56-0.0901-1-1-1-1-1.1-4.6 0.00574-1.49 0.0188-2.98 0.0352-4.46l0.0625-7.94h-16v-133h17v-17z"/>
</svg>
